<?xml version="1.0" encoding="utf-8"?>
<svg xmlns="http://www.w3.org/2000/svg" xmlns:xlink="http://www.w3.org/1999/xlink" width="600" height="400" viewBox="0 0 2400 1600">
<defs>
  <clipPath id="clip3500">
    <rect x="0" y="0" width="2400" height="1600"/>
  </clipPath>
</defs>
<path clip-path="url(#clip3500)" d="
M0 1600 L2400 1600 L2400 0 L0 0  Z
  " fill="#ffffff" fill-rule="evenodd" fill-opacity="1"/>
<defs>
  <clipPath id="clip3501">
    <rect x="480" y="0" width="1681" height="1600"/>
  </clipPath>
</defs>
<path clip-path="url(#clip3500)" d="
M319.964 1425.62 L2352.76 1425.62 L2352.76 47.2441 L319.964 47.2441  Z
  " fill="#ffffff" fill-rule="evenodd" fill-opacity="1"/>
<defs>
  <clipPath id="clip3502">
    <rect x="319" y="47" width="2034" height="1379"/>
  </clipPath>
</defs>
<polyline clip-path="url(#clip3502)" style="stroke:#000000; stroke-width:2; stroke-opacity:0.1; fill:none" points="
  601.763,1425.62 601.763,47.2441 
  "/>
<polyline clip-path="url(#clip3502)" style="stroke:#000000; stroke-width:2; stroke-opacity:0.1; fill:none" points="
  1027.81,1425.62 1027.81,47.2441 
  "/>
<polyline clip-path="url(#clip3502)" style="stroke:#000000; stroke-width:2; stroke-opacity:0.1; fill:none" points="
  1453.86,1425.62 1453.86,47.2441 
  "/>
<polyline clip-path="url(#clip3502)" style="stroke:#000000; stroke-width:2; stroke-opacity:0.1; fill:none" points="
  1879.9,1425.62 1879.9,47.2441 
  "/>
<polyline clip-path="url(#clip3502)" style="stroke:#000000; stroke-width:2; stroke-opacity:0.1; fill:none" points="
  2305.95,1425.62 2305.95,47.2441 
  "/>
<polyline clip-path="url(#clip3502)" style="stroke:#000000; stroke-width:2; stroke-opacity:0.1; fill:none" points="
  319.964,1287.81 2352.76,1287.81 
  "/>
<polyline clip-path="url(#clip3502)" style="stroke:#000000; stroke-width:2; stroke-opacity:0.1; fill:none" points="
  319.964,1037.33 2352.76,1037.33 
  "/>
<polyline clip-path="url(#clip3502)" style="stroke:#000000; stroke-width:2; stroke-opacity:0.1; fill:none" points="
  319.964,786.839 2352.76,786.839 
  "/>
<polyline clip-path="url(#clip3502)" style="stroke:#000000; stroke-width:2; stroke-opacity:0.1; fill:none" points="
  319.964,536.352 2352.76,536.352 
  "/>
<polyline clip-path="url(#clip3502)" style="stroke:#000000; stroke-width:2; stroke-opacity:0.1; fill:none" points="
  319.964,285.865 2352.76,285.865 
  "/>
<polyline clip-path="url(#clip3500)" style="stroke:#000000; stroke-width:4; stroke-opacity:1; fill:none" points="
  319.964,1425.62 2352.76,1425.62 
  "/>
<polyline clip-path="url(#clip3500)" style="stroke:#000000; stroke-width:4; stroke-opacity:1; fill:none" points="
  319.964,1425.62 319.964,47.2441 
  "/>
<polyline clip-path="url(#clip3500)" style="stroke:#000000; stroke-width:4; stroke-opacity:1; fill:none" points="
  601.763,1425.62 601.763,1404.94 
  "/>
<polyline clip-path="url(#clip3500)" style="stroke:#000000; stroke-width:4; stroke-opacity:1; fill:none" points="
  1027.81,1425.62 1027.81,1404.94 
  "/>
<polyline clip-path="url(#clip3500)" style="stroke:#000000; stroke-width:4; stroke-opacity:1; fill:none" points="
  1453.86,1425.62 1453.86,1404.94 
  "/>
<polyline clip-path="url(#clip3500)" style="stroke:#000000; stroke-width:4; stroke-opacity:1; fill:none" points="
  1879.9,1425.62 1879.9,1404.94 
  "/>
<polyline clip-path="url(#clip3500)" style="stroke:#000000; stroke-width:4; stroke-opacity:1; fill:none" points="
  2305.95,1425.62 2305.95,1404.94 
  "/>
<polyline clip-path="url(#clip3500)" style="stroke:#000000; stroke-width:4; stroke-opacity:1; fill:none" points="
  319.964,1287.81 350.455,1287.81 
  "/>
<polyline clip-path="url(#clip3500)" style="stroke:#000000; stroke-width:4; stroke-opacity:1; fill:none" points="
  319.964,1037.33 350.455,1037.33 
  "/>
<polyline clip-path="url(#clip3500)" style="stroke:#000000; stroke-width:4; stroke-opacity:1; fill:none" points="
  319.964,786.839 350.455,786.839 
  "/>
<polyline clip-path="url(#clip3500)" style="stroke:#000000; stroke-width:4; stroke-opacity:1; fill:none" points="
  319.964,536.352 350.455,536.352 
  "/>
<polyline clip-path="url(#clip3500)" style="stroke:#000000; stroke-width:4; stroke-opacity:1; fill:none" points="
  319.964,285.865 350.455,285.865 
  "/>
<g clip-path="url(#clip3500)">
<text style="fill:#000000; fill-opacity:1; font-family:Arial,Helvetica Neue,Helvetica,sans-serif; font-size:48px; text-anchor:start;" transform="rotate(0, 547.273, 1500.63)" x="547.273" y="1500.63">10</text>
</g>
<g clip-path="url(#clip3500)">
<text style="fill:#000000; fill-opacity:1; font-family:Arial,Helvetica Neue,Helvetica,sans-serif; font-size:38px; text-anchor:start;" transform="rotate(0, 600.798, 1473.22)" x="600.798" y="1473.22">-</text>
</g>
<g clip-path="url(#clip3500)">
<text style="fill:#000000; fill-opacity:1; font-family:Arial,Helvetica Neue,Helvetica,sans-serif; font-size:38px; text-anchor:start;" transform="rotate(0, 623.637, 1473.22)" x="623.637" y="1473.22">8 </text>
</g>
<g clip-path="url(#clip3500)">
<text style="fill:#000000; fill-opacity:1; font-family:Arial,Helvetica Neue,Helvetica,sans-serif; font-size:48px; text-anchor:start;" transform="rotate(0, 973.32, 1500.63)" x="973.32" y="1500.63">10</text>
</g>
<g clip-path="url(#clip3500)">
<text style="fill:#000000; fill-opacity:1; font-family:Arial,Helvetica Neue,Helvetica,sans-serif; font-size:38px; text-anchor:start;" transform="rotate(0, 1026.84, 1473.22)" x="1026.84" y="1473.22">-</text>
</g>
<g clip-path="url(#clip3500)">
<text style="fill:#000000; fill-opacity:1; font-family:Arial,Helvetica Neue,Helvetica,sans-serif; font-size:38px; text-anchor:start;" transform="rotate(0, 1049.68, 1473.22)" x="1049.68" y="1473.22">6 </text>
</g>
<g clip-path="url(#clip3500)">
<text style="fill:#000000; fill-opacity:1; font-family:Arial,Helvetica Neue,Helvetica,sans-serif; font-size:48px; text-anchor:start;" transform="rotate(0, 1399.37, 1500.63)" x="1399.37" y="1500.63">10</text>
</g>
<g clip-path="url(#clip3500)">
<text style="fill:#000000; fill-opacity:1; font-family:Arial,Helvetica Neue,Helvetica,sans-serif; font-size:38px; text-anchor:start;" transform="rotate(0, 1452.89, 1473.22)" x="1452.89" y="1473.22">-</text>
</g>
<g clip-path="url(#clip3500)">
<text style="fill:#000000; fill-opacity:1; font-family:Arial,Helvetica Neue,Helvetica,sans-serif; font-size:38px; text-anchor:start;" transform="rotate(0, 1475.73, 1473.22)" x="1475.73" y="1473.22">4 </text>
</g>
<g clip-path="url(#clip3500)">
<text style="fill:#000000; fill-opacity:1; font-family:Arial,Helvetica Neue,Helvetica,sans-serif; font-size:48px; text-anchor:start;" transform="rotate(0, 1825.41, 1500.63)" x="1825.41" y="1500.63">10</text>
</g>
<g clip-path="url(#clip3500)">
<text style="fill:#000000; fill-opacity:1; font-family:Arial,Helvetica Neue,Helvetica,sans-serif; font-size:38px; text-anchor:start;" transform="rotate(0, 1878.94, 1473.22)" x="1878.94" y="1473.22">-</text>
</g>
<g clip-path="url(#clip3500)">
<text style="fill:#000000; fill-opacity:1; font-family:Arial,Helvetica Neue,Helvetica,sans-serif; font-size:38px; text-anchor:start;" transform="rotate(0, 1901.78, 1473.22)" x="1901.78" y="1473.22">2 </text>
</g>
<g clip-path="url(#clip3500)">
<text style="fill:#000000; fill-opacity:1; font-family:Arial,Helvetica Neue,Helvetica,sans-serif; font-size:48px; text-anchor:start;" transform="rotate(0, 2262.88, 1500.63)" x="2262.88" y="1500.63">10</text>
</g>
<g clip-path="url(#clip3500)">
<text style="fill:#000000; fill-opacity:1; font-family:Arial,Helvetica Neue,Helvetica,sans-serif; font-size:38px; text-anchor:start;" transform="rotate(0, 2316.4, 1473.22)" x="2316.4" y="1473.22">0 </text>
</g>
<g clip-path="url(#clip3500)">
<text style="fill:#000000; fill-opacity:1; font-family:Arial,Helvetica Neue,Helvetica,sans-serif; font-size:48px; text-anchor:start;" transform="rotate(0, 154.366, 1311.54)" x="154.366" y="1311.54">10</text>
</g>
<g clip-path="url(#clip3500)">
<text style="fill:#000000; fill-opacity:1; font-family:Arial,Helvetica Neue,Helvetica,sans-serif; font-size:38px; text-anchor:start;" transform="rotate(0, 207.891, 1284.13)" x="207.891" y="1284.13">-</text>
</g>
<g clip-path="url(#clip3500)">
<text style="fill:#000000; fill-opacity:1; font-family:Arial,Helvetica Neue,Helvetica,sans-serif; font-size:38px; text-anchor:start;" transform="rotate(0, 230.73, 1284.13)" x="230.73" y="1284.13">0.6 </text>
</g>
<g clip-path="url(#clip3500)">
<text style="fill:#000000; fill-opacity:1; font-family:Arial,Helvetica Neue,Helvetica,sans-serif; font-size:48px; text-anchor:start;" transform="rotate(0, 154.366, 1061.05)" x="154.366" y="1061.05">10</text>
</g>
<g clip-path="url(#clip3500)">
<text style="fill:#000000; fill-opacity:1; font-family:Arial,Helvetica Neue,Helvetica,sans-serif; font-size:38px; text-anchor:start;" transform="rotate(0, 207.891, 1033.64)" x="207.891" y="1033.64">-</text>
</g>
<g clip-path="url(#clip3500)">
<text style="fill:#000000; fill-opacity:1; font-family:Arial,Helvetica Neue,Helvetica,sans-serif; font-size:38px; text-anchor:start;" transform="rotate(0, 230.73, 1033.64)" x="230.73" y="1033.64">0.3 </text>
</g>
<g clip-path="url(#clip3500)">
<text style="fill:#000000; fill-opacity:1; font-family:Arial,Helvetica Neue,Helvetica,sans-serif; font-size:48px; text-anchor:start;" transform="rotate(0, 177.206, 810.567)" x="177.206" y="810.567">10</text>
</g>
<g clip-path="url(#clip3500)">
<text style="fill:#000000; fill-opacity:1; font-family:Arial,Helvetica Neue,Helvetica,sans-serif; font-size:38px; text-anchor:start;" transform="rotate(0, 230.73, 783.156)" x="230.73" y="783.156">0.0 </text>
</g>
<g clip-path="url(#clip3500)">
<text style="fill:#000000; fill-opacity:1; font-family:Arial,Helvetica Neue,Helvetica,sans-serif; font-size:48px; text-anchor:start;" transform="rotate(0, 177.206, 560.08)" x="177.206" y="560.08">10</text>
</g>
<g clip-path="url(#clip3500)">
<text style="fill:#000000; fill-opacity:1; font-family:Arial,Helvetica Neue,Helvetica,sans-serif; font-size:38px; text-anchor:start;" transform="rotate(0, 230.73, 532.669)" x="230.73" y="532.669">0.3 </text>
</g>
<g clip-path="url(#clip3500)">
<text style="fill:#000000; fill-opacity:1; font-family:Arial,Helvetica Neue,Helvetica,sans-serif; font-size:48px; text-anchor:start;" transform="rotate(0, 177.206, 309.593)" x="177.206" y="309.593">10</text>
</g>
<g clip-path="url(#clip3500)">
<text style="fill:#000000; fill-opacity:1; font-family:Arial,Helvetica Neue,Helvetica,sans-serif; font-size:38px; text-anchor:start;" transform="rotate(0, 230.73, 282.182)" x="230.73" y="282.182">0.6 </text>
</g>
<g clip-path="url(#clip3500)">
<text style="fill:#000000; fill-opacity:1; font-family:Arial,Helvetica Neue,Helvetica,sans-serif; font-size:66px; text-anchor:middle;" transform="rotate(0, 1336.36, 1559.48)" x="1336.36" y="1559.48">Error</text>
</g>
<g clip-path="url(#clip3500)">
<text style="fill:#000000; fill-opacity:1; font-family:Arial,Helvetica Neue,Helvetica,sans-serif; font-size:66px; text-anchor:middle;" transform="rotate(-90, 89.2861, 736.431)" x="89.2861" y="736.431">Time (s)</text>
</g>
<polyline clip-path="url(#clip3502)" style="stroke:#009af9; stroke-width:12; stroke-opacity:1; fill:none" points="
  804.55,1194.74 640.206,1036.68 474.218,760.045 423.422,376.45 
  "/>
<circle clip-path="url(#clip3502)" style="fill:#000000; stroke:none; fill-opacity:1" cx="804.55" cy="1194.74" r="18"/>
<circle clip-path="url(#clip3502)" style="fill:#009af9; stroke:none; fill-opacity:1" cx="804.55" cy="1194.74" r="14"/>
<circle clip-path="url(#clip3502)" style="fill:#000000; stroke:none; fill-opacity:1" cx="640.206" cy="1036.68" r="18"/>
<circle clip-path="url(#clip3502)" style="fill:#009af9; stroke:none; fill-opacity:1" cx="640.206" cy="1036.68" r="14"/>
<circle clip-path="url(#clip3502)" style="fill:#000000; stroke:none; fill-opacity:1" cx="474.218" cy="760.045" r="18"/>
<circle clip-path="url(#clip3502)" style="fill:#009af9; stroke:none; fill-opacity:1" cx="474.218" cy="760.045" r="14"/>
<circle clip-path="url(#clip3502)" style="fill:#000000; stroke:none; fill-opacity:1" cx="423.422" cy="376.45" r="18"/>
<circle clip-path="url(#clip3502)" style="fill:#009af9; stroke:none; fill-opacity:1" cx="423.422" cy="376.45" r="14"/>
<polyline clip-path="url(#clip3502)" style="stroke:#e26f46; stroke-width:12; stroke-opacity:1; fill:none" points="
  752.162,1200.49 649.652,1026.35 492.807,749.502 377.495,390.424 
  "/>
<polygon clip-path="url(#clip3502)" style="fill:#000000; fill-opacity:1" points="
  732.162,1180.49 732.162,1220.49 772.162,1220.49 772.162,1180.49 732.162,1180.49 
  "/>
<polygon clip-path="url(#clip3502)" style="fill:#e26f46; fill-opacity:1" points="
  736.162,1184.49 736.162,1216.49 768.162,1216.49 768.162,1184.49 736.162,1184.49 
  "/>
<polygon clip-path="url(#clip3502)" style="fill:#000000; fill-opacity:1" points="
  629.652,1006.35 629.652,1046.35 669.652,1046.35 669.652,1006.35 629.652,1006.35 
  "/>
<polygon clip-path="url(#clip3502)" style="fill:#e26f46; fill-opacity:1" points="
  633.652,1010.35 633.652,1042.35 665.652,1042.35 665.652,1010.35 633.652,1010.35 
  "/>
<polygon clip-path="url(#clip3502)" style="fill:#000000; fill-opacity:1" points="
  472.807,729.502 472.807,769.502 512.807,769.502 512.807,729.502 472.807,729.502 
  "/>
<polygon clip-path="url(#clip3502)" style="fill:#e26f46; fill-opacity:1" points="
  476.807,733.502 476.807,765.502 508.807,765.502 508.807,733.502 476.807,733.502 
  "/>
<polygon clip-path="url(#clip3502)" style="fill:#000000; fill-opacity:1" points="
  357.495,370.424 357.495,410.424 397.495,410.424 397.495,370.424 357.495,370.424 
  "/>
<polygon clip-path="url(#clip3502)" style="fill:#e26f46; fill-opacity:1" points="
  361.495,374.424 361.495,406.424 393.495,406.424 393.495,374.424 361.495,374.424 
  "/>
<polyline clip-path="url(#clip3502)" style="stroke:#3da44d; stroke-width:12; stroke-opacity:1; fill:none" points="
  963.508,1246.23 782.283,974.148 583.132,561.791 1526.76,86.2547 
  "/>
<polygon clip-path="url(#clip3502)" style="fill:#000000; fill-opacity:1" points="
  963.508,1226.23 958.808,1239.75 944.488,1240.05 955.908,1248.71 951.748,1262.41 963.508,1254.23 975.268,1262.41 971.108,1248.71 982.528,1240.05 968.208,1239.75 
  963.508,1226.23 
  "/>
<polygon clip-path="url(#clip3502)" style="fill:#3da44d; fill-opacity:1" points="
  963.508,1230.23 959.748,1241.05 948.292,1241.29 957.428,1248.22 954.1,1259.18 963.508,1252.63 972.916,1259.18 969.588,1248.22 978.724,1241.29 967.268,1241.05 
  963.508,1230.23 
  "/>
<polygon clip-path="url(#clip3502)" style="fill:#000000; fill-opacity:1" points="
  782.283,954.148 777.583,967.668 763.263,967.968 774.683,976.628 770.523,990.328 782.283,982.148 794.043,990.328 789.883,976.628 801.303,967.968 786.983,967.668 
  782.283,954.148 
  "/>
<polygon clip-path="url(#clip3502)" style="fill:#3da44d; fill-opacity:1" points="
  782.283,958.148 778.523,968.964 767.067,969.204 776.203,976.132 772.875,987.092 782.283,980.548 791.691,987.092 788.363,976.132 797.499,969.204 786.043,968.964 
  782.283,958.148 
  "/>
<polygon clip-path="url(#clip3502)" style="fill:#000000; fill-opacity:1" points="
  583.132,541.791 578.432,555.311 564.112,555.611 575.532,564.271 571.372,577.971 583.132,569.791 594.892,577.971 590.732,564.271 602.152,555.611 587.832,555.311 
  583.132,541.791 
  "/>
<polygon clip-path="url(#clip3502)" style="fill:#3da44d; fill-opacity:1" points="
  583.132,545.791 579.372,556.607 567.916,556.847 577.052,563.775 573.724,574.735 583.132,568.191 592.54,574.735 589.212,563.775 598.348,556.847 586.892,556.607 
  583.132,545.791 
  "/>
<polygon clip-path="url(#clip3502)" style="fill:#000000; fill-opacity:1" points="
  1526.76,66.2547 1522.06,79.7747 1507.74,80.0747 1519.16,88.7347 1515,102.435 1526.76,94.2547 1538.52,102.435 1534.36,88.7347 1545.78,80.0747 1531.46,79.7747 
  1526.76,66.2547 
  "/>
<polygon clip-path="url(#clip3502)" style="fill:#3da44d; fill-opacity:1" points="
  1526.76,70.2547 1523,81.0707 1511.54,81.3107 1520.68,88.2387 1517.35,99.1987 1526.76,92.6547 1536.17,99.1987 1532.84,88.2387 1541.98,81.3107 1530.52,81.0707 
  1526.76,70.2547 
  "/>
<polyline clip-path="url(#clip3502)" style="stroke:#c271d2; stroke-width:12; stroke-opacity:1; fill:none" points="
  1701.12,823.984 1598.72,1019.11 1598.51,617.72 2295.22,228.649 
  "/>
<polygon clip-path="url(#clip3502)" style="fill:#000000; fill-opacity:1" points="
  1701.12,803.984 1681.12,823.984 1701.12,843.984 1721.12,823.984 1701.12,803.984 
  "/>
<polygon clip-path="url(#clip3502)" style="fill:#c271d2; fill-opacity:1" points="
  1701.12,807.984 1685.12,823.984 1701.12,839.984 1717.12,823.984 1701.12,807.984 
  "/>
<polygon clip-path="url(#clip3502)" style="fill:#000000; fill-opacity:1" points="
  1598.72,999.106 1578.72,1019.11 1598.72,1039.11 1618.72,1019.11 1598.72,999.106 
  "/>
<polygon clip-path="url(#clip3502)" style="fill:#c271d2; fill-opacity:1" points="
  1598.72,1003.11 1582.72,1019.11 1598.72,1035.11 1614.72,1019.11 1598.72,1003.11 
  "/>
<polygon clip-path="url(#clip3502)" style="fill:#000000; fill-opacity:1" points="
  1598.51,597.72 1578.51,617.72 1598.51,637.72 1618.51,617.72 1598.51,597.72 
  "/>
<polygon clip-path="url(#clip3502)" style="fill:#c271d2; fill-opacity:1" points="
  1598.51,601.72 1582.51,617.72 1598.51,633.72 1614.51,617.72 1598.51,601.72 
  "/>
<polygon clip-path="url(#clip3502)" style="fill:#000000; fill-opacity:1" points="
  2295.22,208.649 2275.22,228.649 2295.22,248.649 2315.22,228.649 2295.22,208.649 
  "/>
<polygon clip-path="url(#clip3502)" style="fill:#c271d2; fill-opacity:1" points="
  2295.22,212.649 2279.22,228.649 2295.22,244.649 2311.22,228.649 2295.22,212.649 
  "/>
<polyline clip-path="url(#clip3502)" style="stroke:#ac8d18; stroke-width:12; stroke-opacity:1; fill:none" points="
  1187.14,1386.61 1032.99,964.601 910.17,310.774 1562.64,94.2329 
  "/>
<polygon clip-path="url(#clip3502)" style="fill:#000000; fill-opacity:1" points="
  1187.14,1406.61 1169.82,1396.61 1169.82,1376.61 1187.14,1366.61 1204.46,1376.61 1204.46,1396.61 
  "/>
<polygon clip-path="url(#clip3502)" style="fill:#ac8d18; fill-opacity:1" points="
  1187.14,1402.61 1173.28,1394.61 1173.28,1378.61 1187.14,1370.61 1200.99,1378.61 1200.99,1394.61 
  "/>
<polygon clip-path="url(#clip3502)" style="fill:#000000; fill-opacity:1" points="
  1032.99,984.601 1015.67,974.601 1015.67,954.601 1032.99,944.601 1050.31,954.601 1050.31,974.601 
  "/>
<polygon clip-path="url(#clip3502)" style="fill:#ac8d18; fill-opacity:1" points="
  1032.99,980.601 1019.13,972.601 1019.13,956.601 1032.99,948.601 1046.84,956.601 1046.84,972.601 
  "/>
<polygon clip-path="url(#clip3502)" style="fill:#000000; fill-opacity:1" points="
  910.17,330.774 892.85,320.774 892.85,300.774 910.17,290.774 927.49,300.774 927.49,320.774 
  "/>
<polygon clip-path="url(#clip3502)" style="fill:#ac8d18; fill-opacity:1" points="
  910.17,326.774 896.314,318.774 896.314,302.774 910.17,294.774 924.026,302.774 924.026,318.774 
  "/>
<polygon clip-path="url(#clip3502)" style="fill:#000000; fill-opacity:1" points="
  1562.64,114.233 1545.32,104.233 1545.32,84.2329 1562.64,74.2329 1579.96,84.2329 1579.96,104.233 
  "/>
<polygon clip-path="url(#clip3502)" style="fill:#ac8d18; fill-opacity:1" points="
  1562.64,110.233 1548.78,102.233 1548.78,86.2329 1562.64,78.2329 1576.49,86.2329 1576.49,102.233 
  "/>
<polyline clip-path="url(#clip3502)" style="stroke:#00a9ad; stroke-width:12; stroke-opacity:1; fill:none" points="
  933.323,1156.85 714.156,901.858 545.433,118.239 1523.52,87.9173 
  "/>
<line clip-path="url(#clip3502)" x1="933.323" y1="1156.85" x2="933.323" y2="1176.85" style="stroke:#000000; stroke-width:4; stroke-opacity:1"/>
<line clip-path="url(#clip3502)" x1="933.323" y1="1156.85" x2="913.323" y2="1156.85" style="stroke:#000000; stroke-width:4; stroke-opacity:1"/>
<line clip-path="url(#clip3502)" x1="933.323" y1="1156.85" x2="933.323" y2="1136.85" style="stroke:#000000; stroke-width:4; stroke-opacity:1"/>
<line clip-path="url(#clip3502)" x1="933.323" y1="1156.85" x2="953.323" y2="1156.85" style="stroke:#000000; stroke-width:4; stroke-opacity:1"/>
<line clip-path="url(#clip3502)" x1="933.323" y1="1156.85" x2="933.323" y2="1172.85" style="stroke:#00a9ad; stroke-width:4; stroke-opacity:1"/>
<line clip-path="url(#clip3502)" x1="933.323" y1="1156.85" x2="917.323" y2="1156.85" style="stroke:#00a9ad; stroke-width:4; stroke-opacity:1"/>
<line clip-path="url(#clip3502)" x1="933.323" y1="1156.85" x2="933.323" y2="1140.85" style="stroke:#00a9ad; stroke-width:4; stroke-opacity:1"/>
<line clip-path="url(#clip3502)" x1="933.323" y1="1156.85" x2="949.323" y2="1156.85" style="stroke:#00a9ad; stroke-width:4; stroke-opacity:1"/>
<line clip-path="url(#clip3502)" x1="714.156" y1="901.858" x2="714.156" y2="921.858" style="stroke:#000000; stroke-width:4; stroke-opacity:1"/>
<line clip-path="url(#clip3502)" x1="714.156" y1="901.858" x2="694.156" y2="901.858" style="stroke:#000000; stroke-width:4; stroke-opacity:1"/>
<line clip-path="url(#clip3502)" x1="714.156" y1="901.858" x2="714.156" y2="881.858" style="stroke:#000000; stroke-width:4; stroke-opacity:1"/>
<line clip-path="url(#clip3502)" x1="714.156" y1="901.858" x2="734.156" y2="901.858" style="stroke:#000000; stroke-width:4; stroke-opacity:1"/>
<line clip-path="url(#clip3502)" x1="714.156" y1="901.858" x2="714.156" y2="917.858" style="stroke:#00a9ad; stroke-width:4; stroke-opacity:1"/>
<line clip-path="url(#clip3502)" x1="714.156" y1="901.858" x2="698.156" y2="901.858" style="stroke:#00a9ad; stroke-width:4; stroke-opacity:1"/>
<line clip-path="url(#clip3502)" x1="714.156" y1="901.858" x2="714.156" y2="885.858" style="stroke:#00a9ad; stroke-width:4; stroke-opacity:1"/>
<line clip-path="url(#clip3502)" x1="714.156" y1="901.858" x2="730.156" y2="901.858" style="stroke:#00a9ad; stroke-width:4; stroke-opacity:1"/>
<line clip-path="url(#clip3502)" x1="545.433" y1="118.239" x2="545.433" y2="138.239" style="stroke:#000000; stroke-width:4; stroke-opacity:1"/>
<line clip-path="url(#clip3502)" x1="545.433" y1="118.239" x2="525.433" y2="118.239" style="stroke:#000000; stroke-width:4; stroke-opacity:1"/>
<line clip-path="url(#clip3502)" x1="545.433" y1="118.239" x2="545.433" y2="98.2391" style="stroke:#000000; stroke-width:4; stroke-opacity:1"/>
<line clip-path="url(#clip3502)" x1="545.433" y1="118.239" x2="565.433" y2="118.239" style="stroke:#000000; stroke-width:4; stroke-opacity:1"/>
<line clip-path="url(#clip3502)" x1="545.433" y1="118.239" x2="545.433" y2="134.239" style="stroke:#00a9ad; stroke-width:4; stroke-opacity:1"/>
<line clip-path="url(#clip3502)" x1="545.433" y1="118.239" x2="529.433" y2="118.239" style="stroke:#00a9ad; stroke-width:4; stroke-opacity:1"/>
<line clip-path="url(#clip3502)" x1="545.433" y1="118.239" x2="545.433" y2="102.239" style="stroke:#00a9ad; stroke-width:4; stroke-opacity:1"/>
<line clip-path="url(#clip3502)" x1="545.433" y1="118.239" x2="561.433" y2="118.239" style="stroke:#00a9ad; stroke-width:4; stroke-opacity:1"/>
<line clip-path="url(#clip3502)" x1="1523.52" y1="87.9173" x2="1523.52" y2="107.917" style="stroke:#000000; stroke-width:4; stroke-opacity:1"/>
<line clip-path="url(#clip3502)" x1="1523.52" y1="87.9173" x2="1503.52" y2="87.9173" style="stroke:#000000; stroke-width:4; stroke-opacity:1"/>
<line clip-path="url(#clip3502)" x1="1523.52" y1="87.9173" x2="1523.52" y2="67.9173" style="stroke:#000000; stroke-width:4; stroke-opacity:1"/>
<line clip-path="url(#clip3502)" x1="1523.52" y1="87.9173" x2="1543.52" y2="87.9173" style="stroke:#000000; stroke-width:4; stroke-opacity:1"/>
<line clip-path="url(#clip3502)" x1="1523.52" y1="87.9173" x2="1523.52" y2="103.917" style="stroke:#00a9ad; stroke-width:4; stroke-opacity:1"/>
<line clip-path="url(#clip3502)" x1="1523.52" y1="87.9173" x2="1507.52" y2="87.9173" style="stroke:#00a9ad; stroke-width:4; stroke-opacity:1"/>
<line clip-path="url(#clip3502)" x1="1523.52" y1="87.9173" x2="1523.52" y2="71.9173" style="stroke:#00a9ad; stroke-width:4; stroke-opacity:1"/>
<line clip-path="url(#clip3502)" x1="1523.52" y1="87.9173" x2="1539.52" y2="87.9173" style="stroke:#00a9ad; stroke-width:4; stroke-opacity:1"/>
<polyline clip-path="url(#clip3502)" style="stroke:#ed5d92; stroke-width:12; stroke-opacity:1; fill:none" points="
  788.319,948.696 690.097,923.607 553.803,143.277 1536,88.4314 
  "/>
<line clip-path="url(#clip3502)" x1="788.319" y1="948.696" x2="768.319" y2="968.696" style="stroke:#000000; stroke-width:4; stroke-opacity:1"/>
<line clip-path="url(#clip3502)" x1="788.319" y1="948.696" x2="768.319" y2="928.696" style="stroke:#000000; stroke-width:4; stroke-opacity:1"/>
<line clip-path="url(#clip3502)" x1="788.319" y1="948.696" x2="808.319" y2="928.696" style="stroke:#000000; stroke-width:4; stroke-opacity:1"/>
<line clip-path="url(#clip3502)" x1="788.319" y1="948.696" x2="808.319" y2="968.696" style="stroke:#000000; stroke-width:4; stroke-opacity:1"/>
<line clip-path="url(#clip3502)" x1="788.319" y1="948.696" x2="772.319" y2="964.696" style="stroke:#ed5d92; stroke-width:4; stroke-opacity:1"/>
<line clip-path="url(#clip3502)" x1="788.319" y1="948.696" x2="772.319" y2="932.696" style="stroke:#ed5d92; stroke-width:4; stroke-opacity:1"/>
<line clip-path="url(#clip3502)" x1="788.319" y1="948.696" x2="804.319" y2="932.696" style="stroke:#ed5d92; stroke-width:4; stroke-opacity:1"/>
<line clip-path="url(#clip3502)" x1="788.319" y1="948.696" x2="804.319" y2="964.696" style="stroke:#ed5d92; stroke-width:4; stroke-opacity:1"/>
<line clip-path="url(#clip3502)" x1="690.097" y1="923.607" x2="670.097" y2="943.607" style="stroke:#000000; stroke-width:4; stroke-opacity:1"/>
<line clip-path="url(#clip3502)" x1="690.097" y1="923.607" x2="670.097" y2="903.607" style="stroke:#000000; stroke-width:4; stroke-opacity:1"/>
<line clip-path="url(#clip3502)" x1="690.097" y1="923.607" x2="710.097" y2="903.607" style="stroke:#000000; stroke-width:4; stroke-opacity:1"/>
<line clip-path="url(#clip3502)" x1="690.097" y1="923.607" x2="710.097" y2="943.607" style="stroke:#000000; stroke-width:4; stroke-opacity:1"/>
<line clip-path="url(#clip3502)" x1="690.097" y1="923.607" x2="674.097" y2="939.607" style="stroke:#ed5d92; stroke-width:4; stroke-opacity:1"/>
<line clip-path="url(#clip3502)" x1="690.097" y1="923.607" x2="674.097" y2="907.607" style="stroke:#ed5d92; stroke-width:4; stroke-opacity:1"/>
<line clip-path="url(#clip3502)" x1="690.097" y1="923.607" x2="706.097" y2="907.607" style="stroke:#ed5d92; stroke-width:4; stroke-opacity:1"/>
<line clip-path="url(#clip3502)" x1="690.097" y1="923.607" x2="706.097" y2="939.607" style="stroke:#ed5d92; stroke-width:4; stroke-opacity:1"/>
<line clip-path="url(#clip3502)" x1="553.803" y1="143.277" x2="533.803" y2="163.277" style="stroke:#000000; stroke-width:4; stroke-opacity:1"/>
<line clip-path="url(#clip3502)" x1="553.803" y1="143.277" x2="533.803" y2="123.277" style="stroke:#000000; stroke-width:4; stroke-opacity:1"/>
<line clip-path="url(#clip3502)" x1="553.803" y1="143.277" x2="573.803" y2="123.277" style="stroke:#000000; stroke-width:4; stroke-opacity:1"/>
<line clip-path="url(#clip3502)" x1="553.803" y1="143.277" x2="573.803" y2="163.277" style="stroke:#000000; stroke-width:4; stroke-opacity:1"/>
<line clip-path="url(#clip3502)" x1="553.803" y1="143.277" x2="537.803" y2="159.277" style="stroke:#ed5d92; stroke-width:4; stroke-opacity:1"/>
<line clip-path="url(#clip3502)" x1="553.803" y1="143.277" x2="537.803" y2="127.277" style="stroke:#ed5d92; stroke-width:4; stroke-opacity:1"/>
<line clip-path="url(#clip3502)" x1="553.803" y1="143.277" x2="569.803" y2="127.277" style="stroke:#ed5d92; stroke-width:4; stroke-opacity:1"/>
<line clip-path="url(#clip3502)" x1="553.803" y1="143.277" x2="569.803" y2="159.277" style="stroke:#ed5d92; stroke-width:4; stroke-opacity:1"/>
<line clip-path="url(#clip3502)" x1="1536" y1="88.4314" x2="1516" y2="108.431" style="stroke:#000000; stroke-width:4; stroke-opacity:1"/>
<line clip-path="url(#clip3502)" x1="1536" y1="88.4314" x2="1516" y2="68.4314" style="stroke:#000000; stroke-width:4; stroke-opacity:1"/>
<line clip-path="url(#clip3502)" x1="1536" y1="88.4314" x2="1556" y2="68.4314" style="stroke:#000000; stroke-width:4; stroke-opacity:1"/>
<line clip-path="url(#clip3502)" x1="1536" y1="88.4314" x2="1556" y2="108.431" style="stroke:#000000; stroke-width:4; stroke-opacity:1"/>
<line clip-path="url(#clip3502)" x1="1536" y1="88.4314" x2="1520" y2="104.431" style="stroke:#ed5d92; stroke-width:4; stroke-opacity:1"/>
<line clip-path="url(#clip3502)" x1="1536" y1="88.4314" x2="1520" y2="72.4314" style="stroke:#ed5d92; stroke-width:4; stroke-opacity:1"/>
<line clip-path="url(#clip3502)" x1="1536" y1="88.4314" x2="1552" y2="72.4314" style="stroke:#ed5d92; stroke-width:4; stroke-opacity:1"/>
<line clip-path="url(#clip3502)" x1="1536" y1="88.4314" x2="1552" y2="104.431" style="stroke:#ed5d92; stroke-width:4; stroke-opacity:1"/>
<polyline clip-path="url(#clip3502)" style="stroke:#c68125; stroke-width:12; stroke-opacity:1; fill:none" points="
  1029.56,1257.83 704.832,968.49 600.58,562.678 1531.86,88.6027 
  "/>
<polygon clip-path="url(#clip3502)" style="fill:#000000; fill-opacity:1" points="
  1029.56,1237.83 1009.56,1277.83 1049.56,1277.83 1029.56,1237.83 
  "/>
<polygon clip-path="url(#clip3502)" style="fill:#c68125; fill-opacity:1" points="
  1029.56,1241.83 1013.56,1273.83 1045.56,1273.83 1029.56,1241.83 
  "/>
<polygon clip-path="url(#clip3502)" style="fill:#000000; fill-opacity:1" points="
  704.832,948.49 684.832,988.49 724.832,988.49 704.832,948.49 
  "/>
<polygon clip-path="url(#clip3502)" style="fill:#c68125; fill-opacity:1" points="
  704.832,952.49 688.832,984.49 720.832,984.49 704.832,952.49 
  "/>
<polygon clip-path="url(#clip3502)" style="fill:#000000; fill-opacity:1" points="
  600.58,542.678 580.58,582.678 620.58,582.678 600.58,542.678 
  "/>
<polygon clip-path="url(#clip3502)" style="fill:#c68125; fill-opacity:1" points="
  600.58,546.678 584.58,578.678 616.58,578.678 600.58,546.678 
  "/>
<polygon clip-path="url(#clip3502)" style="fill:#000000; fill-opacity:1" points="
  1531.86,68.6027 1511.86,108.603 1551.86,108.603 1531.86,68.6027 
  "/>
<polygon clip-path="url(#clip3502)" style="fill:#c68125; fill-opacity:1" points="
  1531.86,72.6027 1515.86,104.603 1547.86,104.603 1531.86,72.6027 
  "/>
<polyline clip-path="url(#clip3502)" style="stroke:#00a98d; stroke-width:12; stroke-opacity:1; fill:none" points="
  866.662,1093.31 732.044,735.646 492.055,270.964 
  "/>
<polygon clip-path="url(#clip3502)" style="fill:#000000; fill-opacity:1" points="
  886.662,1073.31 846.662,1073.31 866.662,1113.31 886.662,1073.31 
  "/>
<polygon clip-path="url(#clip3502)" style="fill:#00a98d; fill-opacity:1" points="
  882.662,1077.31 850.662,1077.31 866.662,1109.31 882.662,1077.31 
  "/>
<polygon clip-path="url(#clip3502)" style="fill:#000000; fill-opacity:1" points="
  752.044,715.646 712.044,715.646 732.044,755.646 752.044,715.646 
  "/>
<polygon clip-path="url(#clip3502)" style="fill:#00a98d; fill-opacity:1" points="
  748.044,719.646 716.044,719.646 732.044,751.646 748.044,719.646 
  "/>
<polygon clip-path="url(#clip3502)" style="fill:#000000; fill-opacity:1" points="
  512.055,250.964 472.055,250.964 492.055,290.964 512.055,250.964 
  "/>
<polygon clip-path="url(#clip3502)" style="fill:#00a98d; fill-opacity:1" points="
  508.055,254.964 476.055,254.964 492.055,286.964 508.055,254.964 
  "/>
<polyline clip-path="url(#clip3502)" style="stroke:#8e971d; stroke-width:12; stroke-opacity:1; fill:none" points="
  1357.66,1299.43 1380.07,781.056 1600.07,184.302 1691.13,213.362 
  "/>
<polygon clip-path="url(#clip3502)" style="fill:#000000; fill-opacity:1" points="
  1373.66,1299.43 1349.66,1285.43 1349.66,1313.43 1373.66,1299.43 
  "/>
<polygon clip-path="url(#clip3502)" style="fill:#8e971d; fill-opacity:1" points="
  1370.46,1299.43 1351.26,1288.23 1351.26,1310.63 1370.46,1299.43 
  "/>
<polygon clip-path="url(#clip3502)" style="fill:#000000; fill-opacity:1" points="
  1396.07,781.056 1372.07,767.056 1372.07,795.056 1396.07,781.056 
  "/>
<polygon clip-path="url(#clip3502)" style="fill:#8e971d; fill-opacity:1" points="
  1392.87,781.056 1373.67,769.856 1373.67,792.256 1392.87,781.056 
  "/>
<polygon clip-path="url(#clip3502)" style="fill:#000000; fill-opacity:1" points="
  1616.07,184.302 1592.07,170.302 1592.07,198.302 1616.07,184.302 
  "/>
<polygon clip-path="url(#clip3502)" style="fill:#8e971d; fill-opacity:1" points="
  1612.87,184.302 1593.67,173.102 1593.67,195.502 1612.87,184.302 
  "/>
<polygon clip-path="url(#clip3502)" style="fill:#000000; fill-opacity:1" points="
  1707.13,213.362 1683.13,199.362 1683.13,227.362 1707.13,213.362 
  "/>
<polygon clip-path="url(#clip3502)" style="fill:#8e971d; fill-opacity:1" points="
  1703.93,213.362 1684.73,202.162 1684.73,224.562 1703.93,213.362 
  "/>
<polyline clip-path="url(#clip3502)" style="stroke:#00a8cb; stroke-width:12; stroke-opacity:1; fill:none" points="
  1134.4,1131.66 846.635,901.753 665,366.468 1542.01,91.1995 
  "/>
<polygon clip-path="url(#clip3502)" style="fill:#000000; fill-opacity:1" points="
  1118.4,1131.66 1142.4,1145.66 1142.4,1117.66 1118.4,1131.66 
  "/>
<polygon clip-path="url(#clip3502)" style="fill:#00a8cb; fill-opacity:1" points="
  1121.6,1131.66 1140.8,1142.86 1140.8,1120.46 1121.6,1131.66 
  "/>
<polygon clip-path="url(#clip3502)" style="fill:#000000; fill-opacity:1" points="
  830.635,901.753 854.635,915.753 854.635,887.753 830.635,901.753 
  "/>
<polygon clip-path="url(#clip3502)" style="fill:#00a8cb; fill-opacity:1" points="
  833.835,901.753 853.035,912.953 853.035,890.553 833.835,901.753 
  "/>
<polygon clip-path="url(#clip3502)" style="fill:#000000; fill-opacity:1" points="
  649,366.468 673,380.468 673,352.468 649,366.468 
  "/>
<polygon clip-path="url(#clip3502)" style="fill:#00a8cb; fill-opacity:1" points="
  652.2,366.468 671.4,377.668 671.4,355.268 652.2,366.468 
  "/>
<polygon clip-path="url(#clip3502)" style="fill:#000000; fill-opacity:1" points="
  1526.01,91.1995 1550.01,105.199 1550.01,77.1995 1526.01,91.1995 
  "/>
<polygon clip-path="url(#clip3502)" style="fill:#00a8cb; fill-opacity:1" points="
  1529.21,91.1995 1548.41,102.399 1548.41,79.9995 1529.21,91.1995 
  "/>
<polyline clip-path="url(#clip3502)" style="stroke:#9b7fe8; stroke-width:12; stroke-opacity:1; fill:none" points="
  946.299,1182.15 738.241,1084.25 521.379,827.046 577.027,541.982 
  "/>
<polygon clip-path="url(#clip3502)" style="fill:#000000; fill-opacity:1" points="
  946.299,1162.15 927.279,1175.97 934.539,1198.33 958.059,1198.33 965.319,1175.97 
  "/>
<polygon clip-path="url(#clip3502)" style="fill:#9b7fe8; fill-opacity:1" points="
  946.299,1166.15 931.083,1177.2 936.891,1195.09 955.707,1195.09 961.515,1177.2 
  "/>
<polygon clip-path="url(#clip3502)" style="fill:#000000; fill-opacity:1" points="
  738.241,1064.25 719.221,1078.07 726.481,1100.43 750.001,1100.43 757.261,1078.07 
  "/>
<polygon clip-path="url(#clip3502)" style="fill:#9b7fe8; fill-opacity:1" points="
  738.241,1068.25 723.025,1079.31 728.833,1097.2 747.649,1097.2 753.457,1079.31 
  "/>
<polygon clip-path="url(#clip3502)" style="fill:#000000; fill-opacity:1" points="
  521.379,807.046 502.359,820.866 509.619,843.226 533.139,843.226 540.399,820.866 
  "/>
<polygon clip-path="url(#clip3502)" style="fill:#9b7fe8; fill-opacity:1" points="
  521.379,811.046 506.163,822.102 511.971,839.99 530.787,839.99 536.595,822.102 
  "/>
<polygon clip-path="url(#clip3502)" style="fill:#000000; fill-opacity:1" points="
  577.027,521.982 558.007,535.802 565.267,558.162 588.787,558.162 596.047,535.802 
  "/>
<polygon clip-path="url(#clip3502)" style="fill:#9b7fe8; fill-opacity:1" points="
  577.027,525.982 561.811,537.038 567.619,554.926 586.435,554.926 592.243,537.038 
  "/>
<path clip-path="url(#clip3500)" d="
M1730.44 917.004 L2280.76 917.004 L2280.76 130.764 L1730.44 130.764  Z
  " fill="#ffffff" fill-rule="evenodd" fill-opacity="1"/>
<polyline clip-path="url(#clip3500)" style="stroke:#000000; stroke-width:4; stroke-opacity:1; fill:none" points="
  1730.44,917.004 2280.76,917.004 2280.76,130.764 1730.44,130.764 1730.44,917.004 
  "/>
<polyline clip-path="url(#clip3500)" style="stroke:#009af9; stroke-width:12; stroke-opacity:1; fill:none" points="
  1754.44,191.244 1898.44,191.244 
  "/>
<circle clip-path="url(#clip3500)" style="fill:#000000; stroke:none; fill-opacity:1" cx="1838.44" cy="191.244" r="25"/>
<circle clip-path="url(#clip3500)" style="fill:#009af9; stroke:none; fill-opacity:1" cx="1838.44" cy="191.244" r="21"/>
<g clip-path="url(#clip3500)">
<text style="fill:#000000; fill-opacity:1; font-family:Arial,Helvetica Neue,Helvetica,sans-serif; font-size:48px; text-anchor:start;" transform="rotate(0, 1922.44, 208.744)" x="1922.44" y="208.744">Rodas4</text>
</g>
<polyline clip-path="url(#clip3500)" style="stroke:#e26f46; stroke-width:12; stroke-opacity:1; fill:none" points="
  1754.44,251.724 1898.44,251.724 
  "/>
<polygon clip-path="url(#clip3500)" style="fill:#000000; fill-opacity:1" points="
  1810.44,223.724 1810.44,279.724 1866.44,279.724 1866.44,223.724 1810.44,223.724 
  "/>
<polygon clip-path="url(#clip3500)" style="fill:#e26f46; fill-opacity:1" points="
  1814.44,227.724 1814.44,275.724 1862.44,275.724 1862.44,227.724 1814.44,227.724 
  "/>
<g clip-path="url(#clip3500)">
<text style="fill:#000000; fill-opacity:1; font-family:Arial,Helvetica Neue,Helvetica,sans-serif; font-size:48px; text-anchor:start;" transform="rotate(0, 1922.44, 269.224)" x="1922.44" y="269.224">Rodas4P</text>
</g>
<polyline clip-path="url(#clip3500)" style="stroke:#3da44d; stroke-width:12; stroke-opacity:1; fill:none" points="
  1754.44,312.204 1898.44,312.204 
  "/>
<polygon clip-path="url(#clip3500)" style="fill:#000000; fill-opacity:1" points="
  1838.44,284.204 1831.86,303.132 1811.81,303.552 1827.8,315.676 1821.97,334.856 1838.44,323.404 1854.9,334.856 1849.08,315.676 1865.07,303.552 1845.02,303.132 
  1838.44,284.204 
  "/>
<polygon clip-path="url(#clip3500)" style="fill:#3da44d; fill-opacity:1" points="
  1838.44,288.204 1832.8,304.428 1815.61,304.788 1829.32,315.18 1824.33,331.62 1838.44,321.804 1852.55,331.62 1847.56,315.18 1861.26,304.788 1844.08,304.428 
  1838.44,288.204 
  "/>
<g clip-path="url(#clip3500)">
<text style="fill:#000000; fill-opacity:1; font-family:Arial,Helvetica Neue,Helvetica,sans-serif; font-size:48px; text-anchor:start;" transform="rotate(0, 1922.44, 329.704)" x="1922.44" y="329.704">Velds4</text>
</g>
<polyline clip-path="url(#clip3500)" style="stroke:#c271d2; stroke-width:12; stroke-opacity:1; fill:none" points="
  1754.44,372.684 1898.44,372.684 
  "/>
<polygon clip-path="url(#clip3500)" style="fill:#000000; fill-opacity:1" points="
  1838.44,344.684 1810.44,372.684 1838.44,400.684 1866.44,372.684 1838.44,344.684 
  "/>
<polygon clip-path="url(#clip3500)" style="fill:#c271d2; fill-opacity:1" points="
  1838.44,348.684 1814.44,372.684 1838.44,396.684 1862.44,372.684 1838.44,348.684 
  "/>
<g clip-path="url(#clip3500)">
<text style="fill:#000000; fill-opacity:1; font-family:Arial,Helvetica Neue,Helvetica,sans-serif; font-size:48px; text-anchor:start;" transform="rotate(0, 1922.44, 390.184)" x="1922.44" y="390.184">Trapezoid</text>
</g>
<polyline clip-path="url(#clip3500)" style="stroke:#ac8d18; stroke-width:12; stroke-opacity:1; fill:none" points="
  1754.44,433.164 1898.44,433.164 
  "/>
<polygon clip-path="url(#clip3500)" style="fill:#000000; fill-opacity:1" points="
  1838.44,461.164 1814.19,447.164 1814.19,419.164 1838.44,405.164 1862.69,419.164 1862.69,447.164 
  "/>
<polygon clip-path="url(#clip3500)" style="fill:#ac8d18; fill-opacity:1" points="
  1838.44,457.164 1817.65,445.164 1817.65,421.164 1838.44,409.164 1859.22,421.164 1859.22,445.164 
  "/>
<g clip-path="url(#clip3500)">
<text style="fill:#000000; fill-opacity:1; font-family:Arial,Helvetica Neue,Helvetica,sans-serif; font-size:48px; text-anchor:start;" transform="rotate(0, 1922.44, 450.664)" x="1922.44" y="450.664">Rosenbrock23</text>
</g>
<polyline clip-path="url(#clip3500)" style="stroke:#00a9ad; stroke-width:12; stroke-opacity:1; fill:none" points="
  1754.44,493.644 1898.44,493.644 
  "/>
<line clip-path="url(#clip3500)" x1="1838.44" y1="493.644" x2="1838.44" y2="521.644" style="stroke:#000000; stroke-width:4; stroke-opacity:1"/>
<line clip-path="url(#clip3500)" x1="1838.44" y1="493.644" x2="1810.44" y2="493.644" style="stroke:#000000; stroke-width:4; stroke-opacity:1"/>
<line clip-path="url(#clip3500)" x1="1838.44" y1="493.644" x2="1838.44" y2="465.644" style="stroke:#000000; stroke-width:4; stroke-opacity:1"/>
<line clip-path="url(#clip3500)" x1="1838.44" y1="493.644" x2="1866.44" y2="493.644" style="stroke:#000000; stroke-width:4; stroke-opacity:1"/>
<line clip-path="url(#clip3500)" x1="1838.44" y1="493.644" x2="1838.44" y2="517.644" style="stroke:#00a9ad; stroke-width:4; stroke-opacity:1"/>
<line clip-path="url(#clip3500)" x1="1838.44" y1="493.644" x2="1814.44" y2="493.644" style="stroke:#00a9ad; stroke-width:4; stroke-opacity:1"/>
<line clip-path="url(#clip3500)" x1="1838.44" y1="493.644" x2="1838.44" y2="469.644" style="stroke:#00a9ad; stroke-width:4; stroke-opacity:1"/>
<line clip-path="url(#clip3500)" x1="1838.44" y1="493.644" x2="1862.44" y2="493.644" style="stroke:#00a9ad; stroke-width:4; stroke-opacity:1"/>
<g clip-path="url(#clip3500)">
<text style="fill:#000000; fill-opacity:1; font-family:Arial,Helvetica Neue,Helvetica,sans-serif; font-size:48px; text-anchor:start;" transform="rotate(0, 1922.44, 511.144)" x="1922.44" y="511.144">GRK4T</text>
</g>
<polyline clip-path="url(#clip3500)" style="stroke:#ed5d92; stroke-width:12; stroke-opacity:1; fill:none" points="
  1754.44,554.124 1898.44,554.124 
  "/>
<line clip-path="url(#clip3500)" x1="1838.44" y1="554.124" x2="1810.44" y2="582.124" style="stroke:#000000; stroke-width:4; stroke-opacity:1"/>
<line clip-path="url(#clip3500)" x1="1838.44" y1="554.124" x2="1810.44" y2="526.124" style="stroke:#000000; stroke-width:4; stroke-opacity:1"/>
<line clip-path="url(#clip3500)" x1="1838.44" y1="554.124" x2="1866.44" y2="526.124" style="stroke:#000000; stroke-width:4; stroke-opacity:1"/>
<line clip-path="url(#clip3500)" x1="1838.44" y1="554.124" x2="1866.44" y2="582.124" style="stroke:#000000; stroke-width:4; stroke-opacity:1"/>
<line clip-path="url(#clip3500)" x1="1838.44" y1="554.124" x2="1814.44" y2="578.124" style="stroke:#ed5d92; stroke-width:4; stroke-opacity:1"/>
<line clip-path="url(#clip3500)" x1="1838.44" y1="554.124" x2="1814.44" y2="530.124" style="stroke:#ed5d92; stroke-width:4; stroke-opacity:1"/>
<line clip-path="url(#clip3500)" x1="1838.44" y1="554.124" x2="1862.44" y2="530.124" style="stroke:#ed5d92; stroke-width:4; stroke-opacity:1"/>
<line clip-path="url(#clip3500)" x1="1838.44" y1="554.124" x2="1862.44" y2="578.124" style="stroke:#ed5d92; stroke-width:4; stroke-opacity:1"/>
<g clip-path="url(#clip3500)">
<text style="fill:#000000; fill-opacity:1; font-family:Arial,Helvetica Neue,Helvetica,sans-serif; font-size:48px; text-anchor:start;" transform="rotate(0, 1922.44, 571.624)" x="1922.44" y="571.624">Veldd4</text>
</g>
<polyline clip-path="url(#clip3500)" style="stroke:#c68125; stroke-width:12; stroke-opacity:1; fill:none" points="
  1754.44,614.604 1898.44,614.604 
  "/>
<polygon clip-path="url(#clip3500)" style="fill:#000000; fill-opacity:1" points="
  1838.44,586.604 1810.44,642.604 1866.44,642.604 1838.44,586.604 
  "/>
<polygon clip-path="url(#clip3500)" style="fill:#c68125; fill-opacity:1" points="
  1838.44,590.604 1814.44,638.604 1862.44,638.604 1838.44,590.604 
  "/>
<g clip-path="url(#clip3500)">
<text style="fill:#000000; fill-opacity:1; font-family:Arial,Helvetica Neue,Helvetica,sans-serif; font-size:48px; text-anchor:start;" transform="rotate(0, 1922.44, 632.104)" x="1922.44" y="632.104">RosShamp4</text>
</g>
<polyline clip-path="url(#clip3500)" style="stroke:#00a98d; stroke-width:12; stroke-opacity:1; fill:none" points="
  1754.44,675.084 1898.44,675.084 
  "/>
<polygon clip-path="url(#clip3500)" style="fill:#000000; fill-opacity:1" points="
  1866.44,647.084 1810.44,647.084 1838.44,703.084 1866.44,647.084 
  "/>
<polygon clip-path="url(#clip3500)" style="fill:#00a98d; fill-opacity:1" points="
  1862.44,651.084 1814.44,651.084 1838.44,699.084 1862.44,651.084 
  "/>
<g clip-path="url(#clip3500)">
<text style="fill:#000000; fill-opacity:1; font-family:Arial,Helvetica Neue,Helvetica,sans-serif; font-size:48px; text-anchor:start;" transform="rotate(0, 1922.44, 692.584)" x="1922.44" y="692.584">ROS34PW2</text>
</g>
<polyline clip-path="url(#clip3500)" style="stroke:#8e971d; stroke-width:12; stroke-opacity:1; fill:none" points="
  1754.44,735.564 1898.44,735.564 
  "/>
<polygon clip-path="url(#clip3500)" style="fill:#000000; fill-opacity:1" points="
  1860.84,735.564 1827.24,715.964 1827.24,755.164 1860.84,735.564 
  "/>
<polygon clip-path="url(#clip3500)" style="fill:#8e971d; fill-opacity:1" points="
  1857.64,735.564 1828.84,718.764 1828.84,752.364 1857.64,735.564 
  "/>
<g clip-path="url(#clip3500)">
<text style="fill:#000000; fill-opacity:1; font-family:Arial,Helvetica Neue,Helvetica,sans-serif; font-size:48px; text-anchor:start;" transform="rotate(0, 1922.44, 753.064)" x="1922.44" y="753.064">ImplicitEuler</text>
</g>
<polyline clip-path="url(#clip3500)" style="stroke:#00a8cb; stroke-width:12; stroke-opacity:1; fill:none" points="
  1754.44,796.044 1898.44,796.044 
  "/>
<polygon clip-path="url(#clip3500)" style="fill:#000000; fill-opacity:1" points="
  1816.04,796.044 1849.64,815.644 1849.64,776.444 1816.04,796.044 
  "/>
<polygon clip-path="url(#clip3500)" style="fill:#00a8cb; fill-opacity:1" points="
  1819.24,796.044 1848.04,812.844 1848.04,779.244 1819.24,796.044 
  "/>
<g clip-path="url(#clip3500)">
<text style="fill:#000000; fill-opacity:1; font-family:Arial,Helvetica Neue,Helvetica,sans-serif; font-size:48px; text-anchor:start;" transform="rotate(0, 1922.44, 813.544)" x="1922.44" y="813.544">ROS34PW3</text>
</g>
<polyline clip-path="url(#clip3500)" style="stroke:#9b7fe8; stroke-width:12; stroke-opacity:1; fill:none" points="
  1754.44,856.524 1898.44,856.524 
  "/>
<polygon clip-path="url(#clip3500)" style="fill:#000000; fill-opacity:1" points="
  1838.44,828.524 1811.81,847.872 1821.97,879.176 1854.9,879.176 1865.07,847.872 
  "/>
<polygon clip-path="url(#clip3500)" style="fill:#9b7fe8; fill-opacity:1" points="
  1838.44,832.524 1815.61,849.108 1824.33,875.94 1852.55,875.94 1861.26,849.108 
  "/>
<g clip-path="url(#clip3500)">
<text style="fill:#000000; fill-opacity:1; font-family:Arial,Helvetica Neue,Helvetica,sans-serif; font-size:48px; text-anchor:start;" transform="rotate(0, 1922.44, 874.024)" x="1922.44" y="874.024">Rodas5</text>
</g>
</svg>
